<mxfile host="app.diagrams.net" modified="2020-12-16T03:26:57.945Z" agent="5.0 (Windows NT 10.0; Win64; x64) AppleWebKit/537.36 (KHTML, like Gecko) Chrome/87.0.4280.88 Safari/537.36" etag="fatb_SmJ98UHHA9GWfnY" version="14.0.3" type="github">
  <diagram id="R2lEEEUBdFMjLlhIrx00" name="Page-1">
    <mxGraphModel dx="545" dy="453" grid="1" gridSize="10" guides="1" tooltips="1" connect="1" arrows="1" fold="1" page="1" pageScale="1" pageWidth="850" pageHeight="1100" background="#F1FAEE" math="0" shadow="0" extFonts="Permanent Marker^https://fonts.googleapis.com/css?family=Permanent+Marker">
      <root>
        <mxCell id="0" />
        <mxCell id="1" parent="0" />
        <mxCell id="C-vyLk0tnHw3VtMMgP7b-1" value="" style="edgeStyle=entityRelationEdgeStyle;endArrow=ERzeroToMany;startArrow=ERone;endFill=1;startFill=0;labelBackgroundColor=#F1FAEE;strokeColor=#457B9D;fontColor=#1D3557;align=center;verticalAlign=middle;entryX=0;entryY=0.5;entryDx=0;entryDy=0;" parent="1" source="C-vyLk0tnHw3VtMMgP7b-24" target="lSK7fM1VW25Aa7E-3hQ9-39" edge="1">
          <mxGeometry width="100" height="100" relative="1" as="geometry">
            <mxPoint x="340" y="720" as="sourcePoint" />
            <mxPoint x="520" y="125" as="targetPoint" />
          </mxGeometry>
        </mxCell>
        <mxCell id="C-vyLk0tnHw3VtMMgP7b-23" value="Users" style="shape=table;startSize=30;container=1;collapsible=1;childLayout=tableLayout;fixedRows=1;rowLines=0;fontStyle=1;align=center;resizeLast=1;fillColor=#A8DADC;strokeColor=#457B9D;fontColor=#1D3557;verticalAlign=middle;" parent="1" vertex="1">
          <mxGeometry x="40" y="40" width="360" height="120" as="geometry" />
        </mxCell>
        <mxCell id="C-vyLk0tnHw3VtMMgP7b-24" value="" style="shape=partialRectangle;collapsible=0;dropTarget=0;pointerEvents=0;fillColor=none;points=[[0,0.5],[1,0.5]];portConstraint=eastwest;top=0;left=0;right=0;bottom=1;strokeColor=#457B9D;fontColor=#1D3557;align=center;verticalAlign=middle;" parent="C-vyLk0tnHw3VtMMgP7b-23" vertex="1">
          <mxGeometry y="30" width="360" height="30" as="geometry" />
        </mxCell>
        <mxCell id="C-vyLk0tnHw3VtMMgP7b-25" value="PK" style="shape=partialRectangle;overflow=hidden;connectable=0;fillColor=none;top=0;left=0;bottom=0;right=0;fontStyle=1;strokeColor=#457B9D;fontColor=#1D3557;align=center;verticalAlign=middle;" parent="C-vyLk0tnHw3VtMMgP7b-24" vertex="1">
          <mxGeometry width="30" height="30" as="geometry" />
        </mxCell>
        <mxCell id="C-vyLk0tnHw3VtMMgP7b-26" value="user_id" style="shape=partialRectangle;overflow=hidden;connectable=0;fillColor=none;top=0;left=0;bottom=0;right=0;align=center;spacingLeft=6;fontStyle=5;whiteSpace=wrap;strokeColor=#457B9D;fontColor=#1D3557;verticalAlign=middle;" parent="C-vyLk0tnHw3VtMMgP7b-24" vertex="1">
          <mxGeometry x="30" width="90" height="30" as="geometry" />
        </mxCell>
        <mxCell id="lSK7fM1VW25Aa7E-3hQ9-14" value="INTEGER" style="shape=partialRectangle;overflow=hidden;connectable=0;fillColor=none;top=0;left=0;bottom=0;right=0;align=center;spacingLeft=6;fontStyle=5;whiteSpace=wrap;strokeColor=#457B9D;fontColor=#1D3557;verticalAlign=middle;" vertex="1" parent="C-vyLk0tnHw3VtMMgP7b-24">
          <mxGeometry x="120" width="70" height="30" as="geometry" />
        </mxCell>
        <mxCell id="lSK7fM1VW25Aa7E-3hQ9-16" value="PRIMARY KEY GENERATED BY DEFAULT AS IDENTITY" style="shape=partialRectangle;overflow=hidden;connectable=0;fillColor=none;top=0;left=0;bottom=0;right=0;align=center;spacingLeft=6;fontStyle=5;whiteSpace=wrap;strokeColor=#457B9D;fontColor=#1D3557;verticalAlign=middle;" vertex="1" parent="C-vyLk0tnHw3VtMMgP7b-24">
          <mxGeometry x="190" width="170" height="30" as="geometry" />
        </mxCell>
        <mxCell id="lSK7fM1VW25Aa7E-3hQ9-18" style="shape=partialRectangle;collapsible=0;dropTarget=0;pointerEvents=0;fillColor=none;points=[[0,0.5],[1,0.5]];portConstraint=eastwest;top=0;left=0;right=0;bottom=0;strokeColor=#457B9D;fontColor=#1D3557;align=center;verticalAlign=middle;" vertex="1" parent="C-vyLk0tnHw3VtMMgP7b-23">
          <mxGeometry y="60" width="360" height="20" as="geometry" />
        </mxCell>
        <mxCell id="lSK7fM1VW25Aa7E-3hQ9-19" style="shape=partialRectangle;overflow=hidden;connectable=0;fillColor=none;top=0;left=0;bottom=0;right=0;strokeColor=#457B9D;fontColor=#1D3557;align=center;verticalAlign=middle;" vertex="1" parent="lSK7fM1VW25Aa7E-3hQ9-18">
          <mxGeometry width="30" height="20" as="geometry" />
        </mxCell>
        <mxCell id="lSK7fM1VW25Aa7E-3hQ9-20" value="user_name" style="shape=partialRectangle;overflow=hidden;connectable=0;fillColor=none;top=0;left=0;bottom=0;right=0;align=center;spacingLeft=6;strokeColor=#457B9D;fontColor=#1D3557;verticalAlign=middle;" vertex="1" parent="lSK7fM1VW25Aa7E-3hQ9-18">
          <mxGeometry x="30" width="90" height="20" as="geometry" />
        </mxCell>
        <mxCell id="lSK7fM1VW25Aa7E-3hQ9-21" value="TEXT" style="shape=partialRectangle;overflow=hidden;connectable=0;fillColor=none;top=0;left=0;bottom=0;right=0;align=center;spacingLeft=6;strokeColor=#457B9D;fontColor=#1D3557;verticalAlign=middle;" vertex="1" parent="lSK7fM1VW25Aa7E-3hQ9-18">
          <mxGeometry x="120" width="70" height="20" as="geometry" />
        </mxCell>
        <mxCell id="lSK7fM1VW25Aa7E-3hQ9-22" value="Not Null Unique" style="shape=partialRectangle;overflow=hidden;connectable=0;fillColor=none;top=0;left=0;bottom=0;right=0;align=center;spacingLeft=6;strokeColor=#457B9D;fontColor=#1D3557;verticalAlign=middle;" vertex="1" parent="lSK7fM1VW25Aa7E-3hQ9-18">
          <mxGeometry x="190" width="170" height="20" as="geometry" />
        </mxCell>
        <mxCell id="C-vyLk0tnHw3VtMMgP7b-27" value="" style="shape=partialRectangle;collapsible=0;dropTarget=0;pointerEvents=0;fillColor=none;points=[[0,0.5],[1,0.5]];portConstraint=eastwest;top=0;left=0;right=0;bottom=0;strokeColor=#457B9D;fontColor=#1D3557;align=center;verticalAlign=middle;" parent="C-vyLk0tnHw3VtMMgP7b-23" vertex="1">
          <mxGeometry y="80" width="360" height="20" as="geometry" />
        </mxCell>
        <mxCell id="C-vyLk0tnHw3VtMMgP7b-28" value="" style="shape=partialRectangle;overflow=hidden;connectable=0;fillColor=none;top=0;left=0;bottom=0;right=0;strokeColor=#457B9D;fontColor=#1D3557;align=center;verticalAlign=middle;" parent="C-vyLk0tnHw3VtMMgP7b-27" vertex="1">
          <mxGeometry width="30" height="20" as="geometry" />
        </mxCell>
        <mxCell id="C-vyLk0tnHw3VtMMgP7b-29" value="full_name" style="shape=partialRectangle;overflow=hidden;connectable=0;fillColor=none;top=0;left=0;bottom=0;right=0;align=center;spacingLeft=6;strokeColor=#457B9D;fontColor=#1D3557;verticalAlign=middle;" parent="C-vyLk0tnHw3VtMMgP7b-27" vertex="1">
          <mxGeometry x="30" width="90" height="20" as="geometry" />
        </mxCell>
        <mxCell id="lSK7fM1VW25Aa7E-3hQ9-15" value="TEXT" style="shape=partialRectangle;overflow=hidden;connectable=0;fillColor=none;top=0;left=0;bottom=0;right=0;align=center;spacingLeft=6;strokeColor=#457B9D;fontColor=#1D3557;verticalAlign=middle;" vertex="1" parent="C-vyLk0tnHw3VtMMgP7b-27">
          <mxGeometry x="120" width="70" height="20" as="geometry" />
        </mxCell>
        <mxCell id="lSK7fM1VW25Aa7E-3hQ9-17" value="Not Null" style="shape=partialRectangle;overflow=hidden;connectable=0;fillColor=none;top=0;left=0;bottom=0;right=0;align=center;spacingLeft=6;strokeColor=#457B9D;fontColor=#1D3557;verticalAlign=middle;" vertex="1" parent="C-vyLk0tnHw3VtMMgP7b-27">
          <mxGeometry x="190" width="170" height="20" as="geometry" />
        </mxCell>
        <mxCell id="lSK7fM1VW25Aa7E-3hQ9-23" style="shape=partialRectangle;collapsible=0;dropTarget=0;pointerEvents=0;fillColor=none;points=[[0,0.5],[1,0.5]];portConstraint=eastwest;top=0;left=0;right=0;bottom=0;strokeColor=#457B9D;fontColor=#1D3557;align=center;verticalAlign=middle;" vertex="1" parent="C-vyLk0tnHw3VtMMgP7b-23">
          <mxGeometry y="100" width="360" height="20" as="geometry" />
        </mxCell>
        <mxCell id="lSK7fM1VW25Aa7E-3hQ9-24" style="shape=partialRectangle;overflow=hidden;connectable=0;fillColor=none;top=0;left=0;bottom=0;right=0;strokeColor=#457B9D;fontColor=#1D3557;align=center;verticalAlign=middle;" vertex="1" parent="lSK7fM1VW25Aa7E-3hQ9-23">
          <mxGeometry width="30" height="20" as="geometry" />
        </mxCell>
        <mxCell id="lSK7fM1VW25Aa7E-3hQ9-25" value="password" style="shape=partialRectangle;overflow=hidden;connectable=0;fillColor=none;top=0;left=0;bottom=0;right=0;align=center;spacingLeft=6;strokeColor=#457B9D;fontColor=#1D3557;verticalAlign=middle;" vertex="1" parent="lSK7fM1VW25Aa7E-3hQ9-23">
          <mxGeometry x="30" width="90" height="20" as="geometry" />
        </mxCell>
        <mxCell id="lSK7fM1VW25Aa7E-3hQ9-26" value="TEXT" style="shape=partialRectangle;overflow=hidden;connectable=0;fillColor=none;top=0;left=0;bottom=0;right=0;align=center;spacingLeft=6;strokeColor=#457B9D;fontColor=#1D3557;verticalAlign=middle;" vertex="1" parent="lSK7fM1VW25Aa7E-3hQ9-23">
          <mxGeometry x="120" width="70" height="20" as="geometry" />
        </mxCell>
        <mxCell id="lSK7fM1VW25Aa7E-3hQ9-27" value="Not Null" style="shape=partialRectangle;overflow=hidden;connectable=0;fillColor=none;top=0;left=0;bottom=0;right=0;align=center;spacingLeft=6;strokeColor=#457B9D;fontColor=#1D3557;verticalAlign=middle;" vertex="1" parent="lSK7fM1VW25Aa7E-3hQ9-23">
          <mxGeometry x="190" width="170" height="20" as="geometry" />
        </mxCell>
        <mxCell id="lSK7fM1VW25Aa7E-3hQ9-33" value="Budget" style="shape=table;startSize=30;container=1;collapsible=1;childLayout=tableLayout;fixedRows=1;rowLines=0;fontStyle=1;align=center;resizeLast=1;fillColor=#A8DADC;strokeColor=#457B9D;fontColor=#1D3557;verticalAlign=middle;" vertex="1" parent="1">
          <mxGeometry x="500" y="20" width="450" height="140" as="geometry" />
        </mxCell>
        <mxCell id="lSK7fM1VW25Aa7E-3hQ9-34" value="" style="shape=partialRectangle;collapsible=0;dropTarget=0;pointerEvents=0;fillColor=none;points=[[0,0.5],[1,0.5]];portConstraint=eastwest;top=0;left=0;right=0;bottom=1;strokeColor=#457B9D;fontColor=#1D3557;align=center;verticalAlign=middle;" vertex="1" parent="lSK7fM1VW25Aa7E-3hQ9-33">
          <mxGeometry y="30" width="450" height="30" as="geometry" />
        </mxCell>
        <mxCell id="lSK7fM1VW25Aa7E-3hQ9-35" value="PK" style="shape=partialRectangle;overflow=hidden;connectable=0;fillColor=none;top=0;left=0;bottom=0;right=0;fontStyle=1;strokeColor=#457B9D;fontColor=#1D3557;align=center;verticalAlign=middle;" vertex="1" parent="lSK7fM1VW25Aa7E-3hQ9-34">
          <mxGeometry width="30" height="30" as="geometry" />
        </mxCell>
        <mxCell id="lSK7fM1VW25Aa7E-3hQ9-36" value="budget_id" style="shape=partialRectangle;overflow=hidden;connectable=0;fillColor=none;top=0;left=0;bottom=0;right=0;align=center;spacingLeft=6;fontStyle=5;whiteSpace=wrap;strokeColor=#457B9D;fontColor=#1D3557;verticalAlign=middle;" vertex="1" parent="lSK7fM1VW25Aa7E-3hQ9-34">
          <mxGeometry x="30" width="140" height="30" as="geometry" />
        </mxCell>
        <mxCell id="lSK7fM1VW25Aa7E-3hQ9-37" value="INTEGER" style="shape=partialRectangle;overflow=hidden;connectable=0;fillColor=none;top=0;left=0;bottom=0;right=0;align=center;spacingLeft=6;fontStyle=5;whiteSpace=wrap;strokeColor=#457B9D;fontColor=#1D3557;verticalAlign=middle;" vertex="1" parent="lSK7fM1VW25Aa7E-3hQ9-34">
          <mxGeometry x="170" width="80" height="30" as="geometry" />
        </mxCell>
        <mxCell id="lSK7fM1VW25Aa7E-3hQ9-38" value="PRIMARY KEY GENERATED BY DEFAULT AS IDENTITY" style="shape=partialRectangle;overflow=hidden;connectable=0;fillColor=none;top=0;left=0;bottom=0;right=0;align=center;spacingLeft=6;fontStyle=5;whiteSpace=wrap;strokeColor=#457B9D;fontColor=#1D3557;verticalAlign=middle;" vertex="1" parent="lSK7fM1VW25Aa7E-3hQ9-34">
          <mxGeometry x="250" width="200" height="30" as="geometry" />
        </mxCell>
        <mxCell id="lSK7fM1VW25Aa7E-3hQ9-39" style="shape=partialRectangle;collapsible=0;dropTarget=0;pointerEvents=0;fillColor=none;points=[[0,0.5],[1,0.5]];portConstraint=eastwest;top=0;left=0;right=0;bottom=0;strokeColor=#457B9D;fontColor=#1D3557;align=center;verticalAlign=middle;whiteSpace=wrap;" vertex="1" parent="lSK7fM1VW25Aa7E-3hQ9-33">
          <mxGeometry y="60" width="450" height="40" as="geometry" />
        </mxCell>
        <mxCell id="lSK7fM1VW25Aa7E-3hQ9-40" value="FK" style="shape=partialRectangle;overflow=hidden;connectable=0;fillColor=none;top=0;left=0;bottom=0;right=0;strokeColor=#457B9D;fontColor=#1D3557;align=center;verticalAlign=middle;" vertex="1" parent="lSK7fM1VW25Aa7E-3hQ9-39">
          <mxGeometry width="30" height="40" as="geometry" />
        </mxCell>
        <mxCell id="lSK7fM1VW25Aa7E-3hQ9-41" value="user_id" style="shape=partialRectangle;overflow=hidden;connectable=0;fillColor=none;top=0;left=0;bottom=0;right=0;align=center;spacingLeft=6;strokeColor=#457B9D;fontColor=#1D3557;verticalAlign=middle;" vertex="1" parent="lSK7fM1VW25Aa7E-3hQ9-39">
          <mxGeometry x="30" width="140" height="40" as="geometry" />
        </mxCell>
        <mxCell id="lSK7fM1VW25Aa7E-3hQ9-42" value="INTEGER" style="shape=partialRectangle;overflow=hidden;connectable=0;fillColor=none;top=0;left=0;bottom=0;right=0;align=center;spacingLeft=6;strokeColor=#457B9D;fontColor=#1D3557;verticalAlign=middle;" vertex="1" parent="lSK7fM1VW25Aa7E-3hQ9-39">
          <mxGeometry x="170" width="80" height="40" as="geometry" />
        </mxCell>
        <mxCell id="lSK7fM1VW25Aa7E-3hQ9-43" value="REFERENCES user_id (Users) Not null" style="shape=partialRectangle;overflow=hidden;connectable=0;fillColor=none;top=0;left=0;bottom=0;right=0;align=center;spacingLeft=6;strokeColor=#457B9D;fontColor=#1D3557;verticalAlign=middle;whiteSpace=wrap;" vertex="1" parent="lSK7fM1VW25Aa7E-3hQ9-39">
          <mxGeometry x="250" width="200" height="40" as="geometry" />
        </mxCell>
        <mxCell id="lSK7fM1VW25Aa7E-3hQ9-44" value="" style="shape=partialRectangle;collapsible=0;dropTarget=0;pointerEvents=0;fillColor=none;points=[[0,0.5],[1,0.5]];portConstraint=eastwest;top=0;left=0;right=0;bottom=0;strokeColor=#457B9D;fontColor=#1D3557;align=center;verticalAlign=middle;" vertex="1" parent="lSK7fM1VW25Aa7E-3hQ9-33">
          <mxGeometry y="100" width="450" height="20" as="geometry" />
        </mxCell>
        <mxCell id="lSK7fM1VW25Aa7E-3hQ9-45" value="" style="shape=partialRectangle;overflow=hidden;connectable=0;fillColor=none;top=0;left=0;bottom=0;right=0;strokeColor=#457B9D;fontColor=#1D3557;align=center;verticalAlign=middle;" vertex="1" parent="lSK7fM1VW25Aa7E-3hQ9-44">
          <mxGeometry width="30" height="20" as="geometry" />
        </mxCell>
        <mxCell id="lSK7fM1VW25Aa7E-3hQ9-46" value="monthy_pay" style="shape=partialRectangle;overflow=hidden;connectable=0;fillColor=none;top=0;left=0;bottom=0;right=0;align=center;spacingLeft=6;strokeColor=#457B9D;fontColor=#1D3557;verticalAlign=middle;" vertex="1" parent="lSK7fM1VW25Aa7E-3hQ9-44">
          <mxGeometry x="30" width="140" height="20" as="geometry" />
        </mxCell>
        <mxCell id="lSK7fM1VW25Aa7E-3hQ9-47" value="MONEY" style="shape=partialRectangle;overflow=hidden;connectable=0;fillColor=none;top=0;left=0;bottom=0;right=0;align=center;spacingLeft=6;strokeColor=#457B9D;fontColor=#1D3557;verticalAlign=middle;" vertex="1" parent="lSK7fM1VW25Aa7E-3hQ9-44">
          <mxGeometry x="170" width="80" height="20" as="geometry" />
        </mxCell>
        <mxCell id="lSK7fM1VW25Aa7E-3hQ9-48" value="DEFAULT 0.00 Not Null" style="shape=partialRectangle;overflow=hidden;connectable=0;fillColor=none;top=0;left=0;bottom=0;right=0;align=center;spacingLeft=6;strokeColor=#457B9D;fontColor=#1D3557;verticalAlign=middle;" vertex="1" parent="lSK7fM1VW25Aa7E-3hQ9-44">
          <mxGeometry x="250" width="200" height="20" as="geometry" />
        </mxCell>
        <mxCell id="lSK7fM1VW25Aa7E-3hQ9-49" style="shape=partialRectangle;collapsible=0;dropTarget=0;pointerEvents=0;fillColor=none;points=[[0,0.5],[1,0.5]];portConstraint=eastwest;top=0;left=0;right=0;bottom=0;strokeColor=#457B9D;fontColor=#1D3557;align=center;verticalAlign=middle;" vertex="1" parent="lSK7fM1VW25Aa7E-3hQ9-33">
          <mxGeometry y="120" width="450" height="20" as="geometry" />
        </mxCell>
        <mxCell id="lSK7fM1VW25Aa7E-3hQ9-50" style="shape=partialRectangle;overflow=hidden;connectable=0;fillColor=none;top=0;left=0;bottom=0;right=0;strokeColor=#457B9D;fontColor=#1D3557;align=center;verticalAlign=middle;" vertex="1" parent="lSK7fM1VW25Aa7E-3hQ9-49">
          <mxGeometry width="30" height="20" as="geometry" />
        </mxCell>
        <mxCell id="lSK7fM1VW25Aa7E-3hQ9-51" value="additional_income" style="shape=partialRectangle;overflow=hidden;connectable=0;fillColor=none;top=0;left=0;bottom=0;right=0;align=center;spacingLeft=6;strokeColor=#457B9D;fontColor=#1D3557;verticalAlign=middle;" vertex="1" parent="lSK7fM1VW25Aa7E-3hQ9-49">
          <mxGeometry x="30" width="140" height="20" as="geometry" />
        </mxCell>
        <mxCell id="lSK7fM1VW25Aa7E-3hQ9-52" value="MONEY" style="shape=partialRectangle;overflow=hidden;connectable=0;fillColor=none;top=0;left=0;bottom=0;right=0;align=center;spacingLeft=6;strokeColor=#457B9D;fontColor=#1D3557;verticalAlign=middle;" vertex="1" parent="lSK7fM1VW25Aa7E-3hQ9-49">
          <mxGeometry x="170" width="80" height="20" as="geometry" />
        </mxCell>
        <mxCell id="lSK7fM1VW25Aa7E-3hQ9-53" value="DEFAULT 0.00 Not Null" style="shape=partialRectangle;overflow=hidden;connectable=0;fillColor=none;top=0;left=0;bottom=0;right=0;align=center;spacingLeft=6;strokeColor=#457B9D;fontColor=#1D3557;verticalAlign=middle;" vertex="1" parent="lSK7fM1VW25Aa7E-3hQ9-49">
          <mxGeometry x="250" width="200" height="20" as="geometry" />
        </mxCell>
        <mxCell id="lSK7fM1VW25Aa7E-3hQ9-59" value="Bill" style="shape=table;startSize=30;container=1;collapsible=1;childLayout=tableLayout;fixedRows=1;rowLines=0;fontStyle=1;align=center;resizeLast=1;fillColor=#A8DADC;strokeColor=#457B9D;fontColor=#1D3557;verticalAlign=middle;" vertex="1" parent="1">
          <mxGeometry x="1040" y="30" width="470" height="180" as="geometry" />
        </mxCell>
        <mxCell id="lSK7fM1VW25Aa7E-3hQ9-60" value="" style="shape=partialRectangle;collapsible=0;dropTarget=0;pointerEvents=0;fillColor=none;points=[[0,0.5],[1,0.5]];portConstraint=eastwest;top=0;left=0;right=0;bottom=1;strokeColor=#457B9D;fontColor=#1D3557;align=center;verticalAlign=middle;" vertex="1" parent="lSK7fM1VW25Aa7E-3hQ9-59">
          <mxGeometry y="30" width="470" height="30" as="geometry" />
        </mxCell>
        <mxCell id="lSK7fM1VW25Aa7E-3hQ9-61" value="PK" style="shape=partialRectangle;overflow=hidden;connectable=0;fillColor=none;top=0;left=0;bottom=0;right=0;fontStyle=1;strokeColor=#457B9D;fontColor=#1D3557;align=center;verticalAlign=middle;" vertex="1" parent="lSK7fM1VW25Aa7E-3hQ9-60">
          <mxGeometry width="30" height="30" as="geometry" />
        </mxCell>
        <mxCell id="lSK7fM1VW25Aa7E-3hQ9-62" value="bill_id" style="shape=partialRectangle;overflow=hidden;connectable=0;fillColor=none;top=0;left=0;bottom=0;right=0;align=center;spacingLeft=6;fontStyle=5;whiteSpace=wrap;strokeColor=#457B9D;fontColor=#1D3557;verticalAlign=middle;" vertex="1" parent="lSK7fM1VW25Aa7E-3hQ9-60">
          <mxGeometry x="30" width="140" height="30" as="geometry" />
        </mxCell>
        <mxCell id="lSK7fM1VW25Aa7E-3hQ9-63" value="INTEGER" style="shape=partialRectangle;overflow=hidden;connectable=0;fillColor=none;top=0;left=0;bottom=0;right=0;align=center;spacingLeft=6;fontStyle=5;whiteSpace=wrap;strokeColor=#457B9D;fontColor=#1D3557;verticalAlign=middle;" vertex="1" parent="lSK7fM1VW25Aa7E-3hQ9-60">
          <mxGeometry x="170" width="80" height="30" as="geometry" />
        </mxCell>
        <mxCell id="lSK7fM1VW25Aa7E-3hQ9-64" value="PRIMARY KEY GENERATED BY DEFAULT AS IDENTITY" style="shape=partialRectangle;overflow=hidden;connectable=0;fillColor=none;top=0;left=0;bottom=0;right=0;align=center;spacingLeft=6;fontStyle=5;whiteSpace=wrap;strokeColor=#457B9D;fontColor=#1D3557;verticalAlign=middle;" vertex="1" parent="lSK7fM1VW25Aa7E-3hQ9-60">
          <mxGeometry x="250" width="220" height="30" as="geometry" />
        </mxCell>
        <mxCell id="lSK7fM1VW25Aa7E-3hQ9-65" style="shape=partialRectangle;collapsible=0;dropTarget=0;pointerEvents=0;fillColor=none;points=[[0,0.5],[1,0.5]];portConstraint=eastwest;top=0;left=0;right=0;bottom=0;strokeColor=#457B9D;fontColor=#1D3557;align=center;verticalAlign=middle;whiteSpace=wrap;" vertex="1" parent="lSK7fM1VW25Aa7E-3hQ9-59">
          <mxGeometry y="60" width="470" height="40" as="geometry" />
        </mxCell>
        <mxCell id="lSK7fM1VW25Aa7E-3hQ9-66" value="FK" style="shape=partialRectangle;overflow=hidden;connectable=0;fillColor=none;top=0;left=0;bottom=0;right=0;strokeColor=#457B9D;fontColor=#1D3557;align=center;verticalAlign=middle;" vertex="1" parent="lSK7fM1VW25Aa7E-3hQ9-65">
          <mxGeometry width="30" height="40" as="geometry" />
        </mxCell>
        <mxCell id="lSK7fM1VW25Aa7E-3hQ9-67" value="budget_id" style="shape=partialRectangle;overflow=hidden;connectable=0;fillColor=none;top=0;left=0;bottom=0;right=0;align=center;spacingLeft=6;strokeColor=#457B9D;fontColor=#1D3557;verticalAlign=middle;" vertex="1" parent="lSK7fM1VW25Aa7E-3hQ9-65">
          <mxGeometry x="30" width="140" height="40" as="geometry" />
        </mxCell>
        <mxCell id="lSK7fM1VW25Aa7E-3hQ9-68" value="INTEGER" style="shape=partialRectangle;overflow=hidden;connectable=0;fillColor=none;top=0;left=0;bottom=0;right=0;align=center;spacingLeft=6;strokeColor=#457B9D;fontColor=#1D3557;verticalAlign=middle;" vertex="1" parent="lSK7fM1VW25Aa7E-3hQ9-65">
          <mxGeometry x="170" width="80" height="40" as="geometry" />
        </mxCell>
        <mxCell id="lSK7fM1VW25Aa7E-3hQ9-69" value="REFERENCES user_id (Users) Not null" style="shape=partialRectangle;overflow=hidden;connectable=0;fillColor=none;top=0;left=0;bottom=0;right=0;align=center;spacingLeft=6;strokeColor=#457B9D;fontColor=#1D3557;verticalAlign=middle;whiteSpace=wrap;" vertex="1" parent="lSK7fM1VW25Aa7E-3hQ9-65">
          <mxGeometry x="250" width="220" height="40" as="geometry" />
        </mxCell>
        <mxCell id="lSK7fM1VW25Aa7E-3hQ9-70" value="" style="shape=partialRectangle;collapsible=0;dropTarget=0;pointerEvents=0;fillColor=none;points=[[0,0.5],[1,0.5]];portConstraint=eastwest;top=0;left=0;right=0;bottom=0;strokeColor=#457B9D;fontColor=#1D3557;align=center;verticalAlign=middle;" vertex="1" parent="lSK7fM1VW25Aa7E-3hQ9-59">
          <mxGeometry y="100" width="470" height="20" as="geometry" />
        </mxCell>
        <mxCell id="lSK7fM1VW25Aa7E-3hQ9-71" value="" style="shape=partialRectangle;overflow=hidden;connectable=0;fillColor=none;top=0;left=0;bottom=0;right=0;strokeColor=#457B9D;fontColor=#1D3557;align=center;verticalAlign=middle;" vertex="1" parent="lSK7fM1VW25Aa7E-3hQ9-70">
          <mxGeometry width="30" height="20" as="geometry" />
        </mxCell>
        <mxCell id="lSK7fM1VW25Aa7E-3hQ9-72" value="bill_name" style="shape=partialRectangle;overflow=hidden;connectable=0;fillColor=none;top=0;left=0;bottom=0;right=0;align=center;spacingLeft=6;strokeColor=#457B9D;fontColor=#1D3557;verticalAlign=middle;" vertex="1" parent="lSK7fM1VW25Aa7E-3hQ9-70">
          <mxGeometry x="30" width="140" height="20" as="geometry" />
        </mxCell>
        <mxCell id="lSK7fM1VW25Aa7E-3hQ9-73" value="MONEY" style="shape=partialRectangle;overflow=hidden;connectable=0;fillColor=none;top=0;left=0;bottom=0;right=0;align=center;spacingLeft=6;strokeColor=#457B9D;fontColor=#1D3557;verticalAlign=middle;" vertex="1" parent="lSK7fM1VW25Aa7E-3hQ9-70">
          <mxGeometry x="170" width="80" height="20" as="geometry" />
        </mxCell>
        <mxCell id="lSK7fM1VW25Aa7E-3hQ9-74" value="DEFAULT 0.00 Not Null" style="shape=partialRectangle;overflow=hidden;connectable=0;fillColor=none;top=0;left=0;bottom=0;right=0;align=center;spacingLeft=6;strokeColor=#457B9D;fontColor=#1D3557;verticalAlign=middle;" vertex="1" parent="lSK7fM1VW25Aa7E-3hQ9-70">
          <mxGeometry x="250" width="220" height="20" as="geometry" />
        </mxCell>
        <mxCell id="lSK7fM1VW25Aa7E-3hQ9-90" style="shape=partialRectangle;collapsible=0;dropTarget=0;pointerEvents=0;fillColor=none;points=[[0,0.5],[1,0.5]];portConstraint=eastwest;top=0;left=0;right=0;bottom=0;strokeColor=#457B9D;fontColor=#1D3557;align=center;verticalAlign=middle;" vertex="1" parent="lSK7fM1VW25Aa7E-3hQ9-59">
          <mxGeometry y="120" width="470" height="20" as="geometry" />
        </mxCell>
        <mxCell id="lSK7fM1VW25Aa7E-3hQ9-91" style="shape=partialRectangle;overflow=hidden;connectable=0;fillColor=none;top=0;left=0;bottom=0;right=0;strokeColor=#457B9D;fontColor=#1D3557;align=center;verticalAlign=middle;" vertex="1" parent="lSK7fM1VW25Aa7E-3hQ9-90">
          <mxGeometry width="30" height="20" as="geometry" />
        </mxCell>
        <mxCell id="lSK7fM1VW25Aa7E-3hQ9-92" value="cost" style="shape=partialRectangle;overflow=hidden;connectable=0;fillColor=none;top=0;left=0;bottom=0;right=0;align=center;spacingLeft=6;strokeColor=#457B9D;fontColor=#1D3557;verticalAlign=middle;" vertex="1" parent="lSK7fM1VW25Aa7E-3hQ9-90">
          <mxGeometry x="30" width="140" height="20" as="geometry" />
        </mxCell>
        <mxCell id="lSK7fM1VW25Aa7E-3hQ9-93" style="shape=partialRectangle;overflow=hidden;connectable=0;fillColor=none;top=0;left=0;bottom=0;right=0;align=center;spacingLeft=6;strokeColor=#457B9D;fontColor=#1D3557;verticalAlign=middle;" vertex="1" parent="lSK7fM1VW25Aa7E-3hQ9-90">
          <mxGeometry x="170" width="80" height="20" as="geometry" />
        </mxCell>
        <mxCell id="lSK7fM1VW25Aa7E-3hQ9-94" style="shape=partialRectangle;overflow=hidden;connectable=0;fillColor=none;top=0;left=0;bottom=0;right=0;align=center;spacingLeft=6;strokeColor=#457B9D;fontColor=#1D3557;verticalAlign=middle;" vertex="1" parent="lSK7fM1VW25Aa7E-3hQ9-90">
          <mxGeometry x="250" width="220" height="20" as="geometry" />
        </mxCell>
        <mxCell id="lSK7fM1VW25Aa7E-3hQ9-85" style="shape=partialRectangle;collapsible=0;dropTarget=0;pointerEvents=0;fillColor=none;points=[[0,0.5],[1,0.5]];portConstraint=eastwest;top=0;left=0;right=0;bottom=0;strokeColor=#457B9D;fontColor=#1D3557;align=center;verticalAlign=middle;" vertex="1" parent="lSK7fM1VW25Aa7E-3hQ9-59">
          <mxGeometry y="140" width="470" height="20" as="geometry" />
        </mxCell>
        <mxCell id="lSK7fM1VW25Aa7E-3hQ9-86" style="shape=partialRectangle;overflow=hidden;connectable=0;fillColor=none;top=0;left=0;bottom=0;right=0;strokeColor=#457B9D;fontColor=#1D3557;align=center;verticalAlign=middle;" vertex="1" parent="lSK7fM1VW25Aa7E-3hQ9-85">
          <mxGeometry width="30" height="20" as="geometry" />
        </mxCell>
        <mxCell id="lSK7fM1VW25Aa7E-3hQ9-87" value="due_date" style="shape=partialRectangle;overflow=hidden;connectable=0;fillColor=none;top=0;left=0;bottom=0;right=0;align=center;spacingLeft=6;strokeColor=#457B9D;fontColor=#1D3557;verticalAlign=middle;" vertex="1" parent="lSK7fM1VW25Aa7E-3hQ9-85">
          <mxGeometry x="30" width="140" height="20" as="geometry" />
        </mxCell>
        <mxCell id="lSK7fM1VW25Aa7E-3hQ9-88" style="shape=partialRectangle;overflow=hidden;connectable=0;fillColor=none;top=0;left=0;bottom=0;right=0;align=center;spacingLeft=6;strokeColor=#457B9D;fontColor=#1D3557;verticalAlign=middle;" vertex="1" parent="lSK7fM1VW25Aa7E-3hQ9-85">
          <mxGeometry x="170" width="80" height="20" as="geometry" />
        </mxCell>
        <mxCell id="lSK7fM1VW25Aa7E-3hQ9-89" style="shape=partialRectangle;overflow=hidden;connectable=0;fillColor=none;top=0;left=0;bottom=0;right=0;align=center;spacingLeft=6;strokeColor=#457B9D;fontColor=#1D3557;verticalAlign=middle;" vertex="1" parent="lSK7fM1VW25Aa7E-3hQ9-85">
          <mxGeometry x="250" width="220" height="20" as="geometry" />
        </mxCell>
        <mxCell id="lSK7fM1VW25Aa7E-3hQ9-75" style="shape=partialRectangle;collapsible=0;dropTarget=0;pointerEvents=0;fillColor=none;points=[[0,0.5],[1,0.5]];portConstraint=eastwest;top=0;left=0;right=0;bottom=0;strokeColor=#457B9D;fontColor=#1D3557;align=center;verticalAlign=middle;" vertex="1" parent="lSK7fM1VW25Aa7E-3hQ9-59">
          <mxGeometry y="160" width="470" height="20" as="geometry" />
        </mxCell>
        <mxCell id="lSK7fM1VW25Aa7E-3hQ9-76" style="shape=partialRectangle;overflow=hidden;connectable=0;fillColor=none;top=0;left=0;bottom=0;right=0;strokeColor=#457B9D;fontColor=#1D3557;align=center;verticalAlign=middle;" vertex="1" parent="lSK7fM1VW25Aa7E-3hQ9-75">
          <mxGeometry width="30" height="20" as="geometry" />
        </mxCell>
        <mxCell id="lSK7fM1VW25Aa7E-3hQ9-77" value="current_status" style="shape=partialRectangle;overflow=hidden;connectable=0;fillColor=none;top=0;left=0;bottom=0;right=0;align=center;spacingLeft=6;strokeColor=#457B9D;fontColor=#1D3557;verticalAlign=middle;" vertex="1" parent="lSK7fM1VW25Aa7E-3hQ9-75">
          <mxGeometry x="30" width="140" height="20" as="geometry" />
        </mxCell>
        <mxCell id="lSK7fM1VW25Aa7E-3hQ9-78" value="ENUM" style="shape=partialRectangle;overflow=hidden;connectable=0;fillColor=none;top=0;left=0;bottom=0;right=0;align=center;spacingLeft=6;strokeColor=#457B9D;fontColor=#1D3557;verticalAlign=middle;" vertex="1" parent="lSK7fM1VW25Aa7E-3hQ9-75">
          <mxGeometry x="170" width="80" height="20" as="geometry" />
        </mxCell>
        <mxCell id="lSK7fM1VW25Aa7E-3hQ9-79" value="&#39;Unpaid&#39;, &#39;Paid&#39;, &#39;Late&#39;, &#39;Due&#39;, &#39;On Hold&#39;" style="shape=partialRectangle;overflow=hidden;connectable=0;fillColor=none;top=0;left=0;bottom=0;right=0;align=center;spacingLeft=6;strokeColor=#457B9D;fontColor=#1D3557;verticalAlign=middle;" vertex="1" parent="lSK7fM1VW25Aa7E-3hQ9-75">
          <mxGeometry x="250" width="220" height="20" as="geometry" />
        </mxCell>
      </root>
    </mxGraphModel>
  </diagram>
</mxfile>
